<svg width="33" height="32" viewBox="0 0 33 32" fill="none" xmlns="http://www.w3.org/2000/svg">
<rect x="0.435547" width="32" height="32" rx="16" fill="#DB2777"/>
<path d="M16.8745 22.5142C15.9682 22.5142 15.1614 22.3906 14.454 22.1435C13.7466 21.8991 13.1486 21.5398 12.66 21.0653C12.1713 20.5938 11.7992 20.017 11.5435 19.3352C11.2878 18.6534 11.16 17.8778 11.16 17.0085C11.16 16.1506 11.2878 15.3722 11.5435 14.6733C11.802 13.9744 12.1784 13.375 12.6728 12.875C13.1671 12.3722 13.7708 11.9858 14.4838 11.7159C15.1998 11.446 16.0151 11.3111 16.9299 11.3111C17.7765 11.3111 18.5321 11.4347 19.1969 11.6818C19.8645 11.929 20.4299 12.2812 20.8929 12.7386C21.3588 13.1932 21.7125 13.7344 21.954 14.3622C22.1983 14.9872 22.3191 15.679 22.3162 16.4375C22.3191 16.9602 22.2736 17.4403 22.1799 17.8778C22.0861 18.3153 21.9384 18.6974 21.7367 19.0241C21.5378 19.348 21.2765 19.6051 20.9526 19.7955C20.6287 19.983 20.2367 20.0895 19.7765 20.1151C19.4469 20.1406 19.1799 20.1165 18.9753 20.0426C18.7708 19.9687 18.6145 19.8594 18.5066 19.7145C18.4015 19.5668 18.3333 19.3949 18.302 19.1989H18.2509C18.1827 19.3693 18.0492 19.5241 17.8503 19.6634C17.6515 19.7997 17.4086 19.9062 17.1216 19.983C16.8375 20.0568 16.535 20.0838 16.214 20.0639C15.8787 20.044 15.5605 19.9659 15.2594 19.8295C14.9611 19.6932 14.6955 19.4957 14.4625 19.2372C14.2324 18.9787 14.0506 18.6591 13.9171 18.2784C13.7864 17.8977 13.7196 17.4574 13.7168 16.9574C13.7196 16.4631 13.7892 16.0327 13.9256 15.6662C14.0648 15.2997 14.248 14.9915 14.4753 14.7415C14.7054 14.4915 14.9611 14.2955 15.2424 14.1534C15.5236 14.0114 15.8063 13.9205 16.0904 13.8807C16.4114 13.8324 16.7154 13.8324 17.0023 13.8807C17.2892 13.929 17.5307 14.0071 17.7267 14.1151C17.9256 14.223 18.0492 14.3395 18.0975 14.4645H18.1571V13.9872H19.4909V18.1463C19.4938 18.3423 19.5378 18.4943 19.623 18.6023C19.7083 18.7102 19.8233 18.7642 19.9682 18.7642C20.1642 18.7642 20.3276 18.6776 20.4583 18.5043C20.5918 18.331 20.6912 18.0653 20.7566 17.7074C20.8248 17.3494 20.8588 16.8935 20.8588 16.3395C20.8588 15.8054 20.7878 15.3366 20.6458 14.9332C20.5066 14.527 20.3105 14.1818 20.0577 13.8977C19.8077 13.6108 19.5165 13.3778 19.1841 13.1989C18.8517 13.0199 18.4909 12.8892 18.1017 12.8068C17.7154 12.7244 17.3176 12.6832 16.9086 12.6832C16.2012 12.6832 15.5833 12.7912 15.0549 13.0071C14.5265 13.2202 14.0861 13.5199 13.7338 13.9062C13.3816 14.2926 13.1174 14.7457 12.9412 15.2656C12.7679 15.7827 12.6799 16.3466 12.677 16.9574C12.6799 17.6307 12.7736 18.2273 12.9583 18.7472C13.1458 19.2642 13.4213 19.6989 13.785 20.0511C14.1486 20.4034 14.5975 20.6705 15.1316 20.8523C15.6657 21.0341 16.2793 21.125 16.9725 21.125C17.2992 21.125 17.6188 21.1009 17.9313 21.0526C18.2438 21.0071 18.5265 20.9503 18.7793 20.8821C19.0321 20.8168 19.2353 20.7528 19.3887 20.6903L19.8105 21.9261C19.6316 22.0284 19.3887 22.1236 19.0819 22.2116C18.7779 22.3026 18.4341 22.375 18.0506 22.429C17.6699 22.4858 17.2779 22.5142 16.8745 22.5142ZM16.6784 18.6619C17.025 18.6619 17.3006 18.5952 17.5051 18.4616C17.7125 18.3281 17.8603 18.1307 17.9483 17.8693C18.0392 17.6051 18.0819 17.2798 18.0762 16.8935C18.0733 16.5526 18.0293 16.2642 17.9441 16.0284C17.8617 15.7898 17.7182 15.6094 17.5137 15.4872C17.312 15.3622 17.0307 15.2997 16.6699 15.2997C16.3546 15.2997 16.0861 15.3665 15.8645 15.5C15.6458 15.6335 15.4782 15.821 15.3617 16.0625C15.248 16.3011 15.1898 16.5824 15.187 16.9062C15.1898 17.2074 15.2381 17.4929 15.3319 17.7628C15.4256 18.0298 15.5804 18.2472 15.7963 18.4148C16.0123 18.5795 16.3063 18.6619 16.6784 18.6619Z" fill="white"/>
</svg>
