<svg width="121" height="24" viewBox="0 0 121 24" fill="none" xmlns="http://www.w3.org/2000/svg">
<path d="M12.4355 2L15.5255 8.26L22.4355 9.27L17.4355 14.14L18.6155 21.02L12.4355 17.77L6.25555 21.02L7.43555 14.14L2.43555 9.27L9.34555 8.26L12.4355 2Z" fill="#FACC15" stroke="#FACC15" stroke-width="2" stroke-linecap="round" stroke-linejoin="round"/>
<path d="M36.4355 2L39.5255 8.26L46.4355 9.27L41.4355 14.14L42.6155 21.02L36.4355 17.77L30.2555 21.02L31.4355 14.14L26.4355 9.27L33.3455 8.26L36.4355 2Z" fill="#FACC15" stroke="#FACC15" stroke-width="2" stroke-linecap="round" stroke-linejoin="round"/>
<path d="M60.4355 2L63.5255 8.26L70.4355 9.27L65.4355 14.14L66.6155 21.02L60.4355 17.77L54.2555 21.02L55.4355 14.14L50.4355 9.27L57.3455 8.26L60.4355 2Z" fill="#FACC15" stroke="#FACC15" stroke-width="2" stroke-linecap="round" stroke-linejoin="round"/>
<path d="M84.4355 2L87.5255 8.26L94.4355 9.27L89.4355 14.14L90.6155 21.02L84.4355 17.77L78.2555 21.02L79.4355 14.14L74.4355 9.27L81.3455 8.26L84.4355 2Z" fill="#FACC15" stroke="#FACC15" stroke-width="2" stroke-linecap="round" stroke-linejoin="round"/>
<path d="M108.436 2L111.526 8.26L118.436 9.27L113.436 14.14L114.616 21.02L108.436 17.77L102.256 21.02L103.436 14.14L98.4355 9.27L105.346 8.26L108.436 2Z" fill="#FACC15" stroke="#FACC15" stroke-width="2" stroke-linecap="round" stroke-linejoin="round"/>
</svg>
