<svg width="33" height="32" viewBox="0 0 33 32" fill="none" xmlns="http://www.w3.org/2000/svg">
<rect x="0.435547" width="32" height="32" rx="16" fill="#2563EB"/>
<path d="M18.6799 13.4545V14.8182H14.6401V13.4545H18.6799ZM15.5648 20V12.9815C15.5648 12.5071 15.6571 12.1136 15.8418 11.8011C16.0293 11.4886 16.285 11.2543 16.6088 11.098C16.9327 10.9418 17.3006 10.8636 17.7125 10.8636C17.9909 10.8636 18.2452 10.8849 18.4753 10.9276C18.7083 10.9702 18.8816 11.0085 18.9952 11.0426L18.6713 12.4062C18.6003 12.3835 18.5123 12.3622 18.4071 12.3423C18.3049 12.3224 18.1998 12.3125 18.0918 12.3125C17.8248 12.3125 17.6387 12.375 17.5336 12.5C17.4284 12.6222 17.3759 12.794 17.3759 13.0156V20H15.5648Z" fill="white"/>
</svg>
