<svg width="40" height="40" viewBox="0 0 40 40" fill="none" xmlns="http://www.w3.org/2000/svg">
<rect width="40" height="40" rx="20" fill="#16A34A"/>
<g clip-path="url(#clip0_2_65)">
<path d="M29.8199 23.4201L27.3199 27.7501C26.8299 28.6101 25.9199 29.0601 24.9999 29.0001H22.9999V31.0001L20.4999 26.5001L22.9999 22.0001V24.0001H25.8199L23.5999 20.1501L27.9299 17.6501L29.7299 20.7701C30.2499 21.5401 30.3199 22.5701 29.8199 23.4201ZM17.2099 11.0601H22.2099C23.1899 11.0601 24.0399 11.6301 24.4499 12.4501L25.4499 14.1901L27.1799 13.1901L24.5399 17.6001L19.3899 17.6901L21.1199 16.6901L19.7099 14.2401L17.4999 18.0901L13.1599 15.5901L14.9599 12.4701C15.3699 11.6401 16.2199 11.0601 17.2099 11.0601ZM13.0499 27.7601L10.5499 23.4301C10.0599 22.5801 10.1299 21.5601 10.6399 20.7901L11.6399 19.0601L9.90991 18.0601L15.0499 18.1401L17.6999 22.5601L15.9699 21.5601L14.5599 24.0001H18.9999V29.0001H15.3999C14.9314 29.034 14.4628 28.9357 14.0474 28.7165C13.6319 28.4973 13.2864 28.1659 13.0499 27.7601Z" fill="black"/>
<path d="M29.8199 23.4201L27.3199 27.7501C26.8299 28.6101 25.9199 29.0601 24.9999 29.0001H22.9999V31.0001L20.4999 26.5001L22.9999 22.0001V24.0001H25.8199L23.5999 20.1501L27.9299 17.6501L29.7299 20.7701C30.2499 21.5401 30.3199 22.5701 29.8199 23.4201ZM17.2099 11.0601H22.2099C23.1899 11.0601 24.0399 11.6301 24.4499 12.4501L25.4499 14.1901L27.1799 13.1901L24.5399 17.6001L19.3899 17.6901L21.1199 16.6901L19.7099 14.2401L17.4999 18.0901L13.1599 15.5901L14.9599 12.4701C15.3699 11.6401 16.2199 11.0601 17.2099 11.0601ZM13.0499 27.7601L10.5499 23.4301C10.0599 22.5801 10.1299 21.5601 10.6399 20.7901L11.6399 19.0601L9.90991 18.0601L15.0499 18.1401L17.6999 22.5601L15.9699 21.5601L14.5599 24.0001H18.9999V29.0001H15.3999C14.9314 29.034 14.4628 28.9357 14.0474 28.7165C13.6319 28.4973 13.2864 28.1659 13.0499 27.7601Z" fill="#DCFCE7"/>
</g>
<defs>
<clipPath id="clip0_2_65">
<rect width="24" height="24" fill="white" transform="translate(8 8)"/>
</clipPath>
</defs>
</svg>
