<svg width="33" height="32" viewBox="0 0 33 32" fill="none" xmlns="http://www.w3.org/2000/svg">
<rect x="0.435547" width="32" height="32" rx="16" fill="#60A5FA"/>
<path d="M18.6415 13.4545V14.8182H14.6998V13.4545H18.6415ZM15.5946 11.8864H17.41V17.9886C17.41 18.1562 17.4355 18.2869 17.4867 18.3807C17.5378 18.4716 17.6088 18.5355 17.6998 18.5724C17.7935 18.6094 17.9015 18.6278 18.0236 18.6278C18.1088 18.6278 18.1941 18.6207 18.2793 18.6065C18.3645 18.5895 18.4299 18.5767 18.4753 18.5682L18.7608 19.919C18.6699 19.9474 18.5421 19.9801 18.3773 20.017C18.2125 20.0568 18.0123 20.081 17.7765 20.0895C17.339 20.1065 16.9554 20.0483 16.6259 19.9148C16.2992 19.7812 16.0449 19.5739 15.8631 19.2926C15.6813 19.0114 15.5918 18.6562 15.5946 18.2273V11.8864Z" fill="white"/>
</svg>
